# xmcd CD database file
#
# Track frame offsets:
#	150
#	14150
#	32257
#	46585
#	61034
#	73342
#	87940
#	103393
#	116602
#	132854
#	146899
#	165688
#
# Disc length: 2373 seconds
#
# Revision: 0
# Processed by: cddbd v1.5.2PL0 Copyright (c) Steve Scherf et al.
# Submitted via: CDex 1.51
#
DISCID=a709430c
DTITLE=Jeff Tuttle - Livin' Like A Millionaire
DYEAR=2008
DGENRE=Country
TTITLE0=Long Neck Story
TTITLE1=The Strong One
TTITLE2=Red Neck Feelin' Blue
TTITLE3=Livin' Like A Millionaire
TTITLE4=Hung Up On You
TTITLE5=Let's Don't (and say we did)
TTITLE6=First Hand
TTITLE7=Momma Beat the Devil Out of Me
TTITLE8=Why Can't We All Just Get Along?
TTITLE9=Baby's Got Her Blue Jeans On
TTITLE10=Thinkin' of You
TTITLE11=Heroes Never Die
EXTD=YEAR: 2008
EXTT0=
EXTT1=
EXTT2=
EXTT3=
EXTT4=
EXTT5=
EXTT6=
EXTT7=
EXTT8=
EXTT9=
EXTT10=
EXTT11=
PLAYORDER=
